<svg width="50" height="50" viewBox="0 0 50 50" fill="none" xmlns="http://www.w3.org/2000/svg">
<path fill-rule="evenodd" clip-rule="evenodd" d="M45.0479 23.1458L26.8542 4.95C26.351 4.4471 25.6687 4.1646 24.9573 4.1646C24.2459 4.1646 23.5636 4.4471 23.0604 4.95L19.2833 8.73125L24.075 13.5229C24.64 13.3313 25.2474 13.3021 25.8281 13.4387C26.4089 13.5752 26.9397 13.872 27.3601 14.2952C27.7806 14.7185 28.0738 15.2512 28.2064 15.8329C28.339 16.4145 28.3058 17.0217 28.1104 17.5854L32.7292 22.2042C33.4194 21.9669 34.17 21.9734 34.856 22.2225C35.542 22.4716 36.1219 22.9483 36.4991 23.5731C36.8763 24.1979 37.0279 24.9331 36.9287 25.6562C36.8295 26.3792 36.4856 27.0465 35.9541 27.5467C35.4226 28.0469 34.7358 28.3498 34.0081 28.405C33.2803 28.4602 32.5557 28.2644 31.9548 27.8501C31.354 27.4358 30.9133 26.828 30.7062 26.1282C30.4991 25.4284 30.5381 24.6787 30.8167 24.0042L26.5083 19.6958V31.0313C27.1629 31.3552 27.6868 31.8937 27.9925 32.557C28.2982 33.2203 28.3673 33.9683 28.1883 34.6764C28.0093 35.3845 27.593 36.0099 27.0088 36.4483C26.4246 36.8866 25.7078 37.1115 24.9779 37.0855C24.248 37.0594 23.5491 36.7839 22.9977 36.305C22.4463 35.8261 22.0757 35.1726 21.9476 34.4536C21.8196 33.7345 21.9419 32.9933 22.2941 32.3535C22.6464 31.7136 23.2073 31.2139 23.8833 30.9375V19.5C23.4935 19.3403 23.1391 19.1049 22.8406 18.8075C22.5422 18.5101 22.3055 18.1566 22.1444 17.7673C21.9833 17.378 21.9008 16.9607 21.9018 16.5393C21.9027 16.118 21.9871 15.7011 22.15 15.3125L17.4271 10.5854L4.95209 23.0583C4.44906 23.5619 4.1665 24.2445 4.1665 24.9562C4.1665 25.668 4.44906 26.3506 4.95209 26.8542L23.1458 45.0458C23.649 45.5487 24.3313 45.8312 25.0427 45.8312C25.7541 45.8312 26.4364 45.5487 26.9396 45.0458L45.0479 26.9375C45.2972 26.6883 45.495 26.3924 45.63 26.0668C45.7649 25.7411 45.8344 25.3921 45.8344 25.0396C45.8344 24.6871 45.7649 24.338 45.63 24.0124C45.495 23.6867 45.2972 23.3909 45.0479 23.1417" fill="#5154CE"/>
</svg>
