<svg width="45" height="45" viewBox="0 0 45 45" fill="none" xmlns="http://www.w3.org/2000/svg">
<g clip-path="url(#clip0_345_11)">
<path d="M39.7124 28.5835L44.5359 30.9966C45.1546 31.306 45.1546 32.1891 44.5359 32.4985L23.2509 43.1438C23.0177 43.2602 22.7606 43.3208 22.4999 43.3208C22.2393 43.3208 21.9822 43.2602 21.749 43.1438L0.464011 32.4985C0.324966 32.4284 0.208109 32.3211 0.126462 32.1885C0.0448143 32.0559 0.0015822 31.9033 0.0015822 31.7476C0.0015822 31.5918 0.0448143 31.4392 0.126462 31.3066C0.208109 31.174 0.324966 31.0667 0.464011 30.9966L5.29026 28.5835L20.2443 36.0619C21.6646 36.7707 23.3381 36.7707 24.7556 36.0619L39.7096 28.5807L39.7124 28.5835ZM21.749 0.177165C21.9822 0.0607911 22.2393 0.000213623 22.4999 0.000213623C22.7606 0.000213623 23.0177 0.0607911 23.2509 0.177165L44.5359 10.8197C44.6748 10.8902 44.7915 10.9979 44.873 11.1307C44.9545 11.2634 44.9977 11.4162 44.9977 11.572C44.9977 11.7279 44.9545 11.8806 44.873 12.0134C44.7915 12.1462 44.6748 12.2538 44.5359 12.3244L23.2509 22.9641C23.0177 23.0805 22.7606 23.141 22.4999 23.141C22.2393 23.141 21.9822 23.0805 21.749 22.9641L0.464011 12.3244C0.324229 12.2546 0.206657 12.1472 0.124482 12.0143C0.0423075 11.8814 -0.0012207 11.7283 -0.0012207 11.572C-0.0012207 11.4158 0.0423075 11.2626 0.124482 11.1298C0.206657 10.9969 0.324229 10.8895 0.464011 10.8197L21.749 0.177165Z" fill="#5154CE"/>
<path d="M39.7123 18.495L44.5358 20.9081C45.1545 21.2175 45.1545 22.1006 44.5358 22.4099L23.2508 33.0524C23.0176 33.1687 22.7605 33.2293 22.4998 33.2293C22.2392 33.2293 21.9821 33.1687 21.7489 33.0524L0.463894 22.4099C0.324848 22.3399 0.207992 22.2325 0.126344 22.1C0.0446969 21.9674 0.00146484 21.8147 0.00146484 21.659C0.00146484 21.5033 0.0446969 21.3507 0.126344 21.2181C0.207992 21.0855 0.324848 20.9782 0.463894 20.9081L5.29014 18.495L20.2442 25.9734C21.6645 26.6821 23.338 26.6821 24.7555 25.9734L39.7095 18.495H39.7123Z" fill="#5154CE"/>
</g>
<defs>
<clipPath id="clip0_345_11">
<rect width="45" height="45" fill="white"/>
</clipPath>
</defs>
</svg>
